<svg xmlns="http://www.w3.org/2000/svg" xmlns:xlink="http://www.w3.org/1999/xlink" width="211" zoomAndPan="magnify" viewBox="0 0 158.25 154.499994" height="206" preserveAspectRatio="xMidYMid meet" version="1.0"><defs><clipPath id="3ec8f6c4fb"><path d="M 0 0.117188 L 157.339844 0.117188 L 157.339844 153.722656 L 0 153.722656 Z M 0 0.117188 " clip-rule="nonzero"/></clipPath><clipPath id="4b6e3de124"><path d="M 0 0.117188 L 157.339844 0.117188 L 157.339844 153.722656 L 0 153.722656 Z M 0 0.117188 " clip-rule="nonzero"/></clipPath><clipPath id="91cd1dbcac"><rect x="0" width="158" y="0" height="154"/></clipPath><clipPath id="60564ef71b"><path d="M 26.375 92 L 68 92 L 68 125 L 26.375 125 Z M 26.375 92 " clip-rule="nonzero"/></clipPath><clipPath id="4656f93589"><path d="M 84 85 L 130.878906 85 L 130.878906 110 L 84 110 Z M 84 85 " clip-rule="nonzero"/></clipPath></defs><g clip-path="url(#3ec8f6c4fb)"><g transform="matrix(1, 0, 0, 1, 0, 0.000000000000032918)"><g clip-path="url(#91cd1dbcac)"><g clip-path="url(#4b6e3de124)"><path fill="#000000" d="M 0 0.117188 L 157.207031 0.117188 L 157.207031 153.722656 L 0 153.722656 Z M 0 0.117188 " fill-opacity="1" fill-rule="nonzero"/></g></g></g></g><g clip-path="url(#60564ef71b)"><path fill="#f4f4f4" d="M 41.046875 124.140625 L 26.398438 124.140625 L 26.398438 121.660156 L 39.496094 121.660156 L 49.03125 102.164062 L 57.378906 106.550781 L 65.324219 92.480469 L 67.480469 93.703125 L 58.351562 109.859375 L 50.144531 105.546875 Z M 41.046875 124.140625 " fill-opacity="1" fill-rule="nonzero"/></g><path fill="#f4f4f4" d="M 43.910156 40.820312 L 41.609375 40.199219 C 41.609375 36.019531 40.792969 24.640625 36.859375 22.214844 C 35.84375 21.597656 34.628906 21.671875 33.140625 22.441406 L 32.03125 20.234375 C 35.6875 18.328125 38.125 19.71875 39.527344 21.210938 C 41.484375 23.308594 42.855469 27.164062 43.589844 32.671875 C 43.59375 32.757812 44.4375 39.988281 43.910156 40.820312 Z M 43.910156 40.820312 " fill-opacity="1" fill-rule="nonzero"/><path fill="#f4f4f4" d="M 57.734375 43.996094 L 55.433594 43.375 C 55.433594 39.035156 54.601562 27.253906 50.601562 24.816406 C 49.601562 24.195312 48.417969 24.277344 46.972656 25.027344 L 45.828125 22.824219 C 49.441406 20.964844 51.855469 22.320312 53.269531 23.808594 C 55.265625 25.945312 56.652344 29.914062 57.402344 35.59375 C 57.386719 35.660156 58.242188 43.15625 57.734375 43.996094 Z M 57.734375 43.996094 " fill-opacity="1" fill-rule="nonzero"/><path fill="#f4f4f4" d="M 77.179688 74.832031 C 75.886719 74.8125 74.628906 75.015625 73.40625 75.441406 C 72.183594 75.867188 71.074219 76.492188 70.074219 77.3125 C 69.789062 77.605469 69.488281 77.890625 69.1875 78.160156 C 68.371094 79.046875 67.746094 80.050781 67.308594 81.175781 C 66.875 82.296875 66.664062 83.460938 66.675781 84.667969 C 66.675781 90.085938 71.386719 94.496094 77.179688 94.496094 C 82.96875 94.496094 87.683594 90.085938 87.683594 84.667969 C 87.683594 79.246094 82.976562 74.832031 77.179688 74.832031 Z M 77.179688 74.832031 " fill-opacity="1" fill-rule="nonzero"/><path fill="#f4f4f4" d="M 68.527344 75.347656 C 69.175781 74.664062 69.761719 73.933594 70.289062 73.15625 C 74.964844 66.230469 73.855469 57.277344 67.808594 53.195312 C 67.742188 53.152344 67.679688 53.101562 67.625 53.042969 C 66.558594 51.980469 57.824219 47.511719 49.144531 45.488281 C 46.734375 44.898438 44.289062 44.582031 41.808594 44.539062 C 34.746094 44.539062 34.179688 48.261719 33.996094 49.5 C 32.316406 60.625 44.816406 72.960938 48.691406 76.476562 L 48.773438 76.554688 C 49.394531 77.238281 50.085938 77.835938 50.851562 78.355469 C 52.882812 79.699219 55.117188 80.363281 57.554688 80.339844 C 59.351562 80.300781 61.085938 79.957031 62.757812 79.296875 C 64.433594 78.640625 65.941406 77.714844 67.28125 76.519531 C 67.671875 76.101562 68.085938 75.710938 68.527344 75.347656 Z M 64.113281 63.625 C 64.015625 63.652344 63.914062 63.664062 63.808594 63.664062 C 63.527344 63.664062 63.273438 63.578125 63.050781 63.40625 C 62.824219 63.230469 62.675781 63.007812 62.605469 62.734375 L 61.570312 58.683594 C 61.53125 58.523438 61.519531 58.363281 61.542969 58.199219 C 61.566406 58.035156 61.621094 57.882812 61.703125 57.742188 C 61.785156 57.597656 61.894531 57.480469 62.027344 57.378906 C 62.15625 57.28125 62.304688 57.210938 62.464844 57.167969 C 62.625 57.128906 62.785156 57.117188 62.949219 57.140625 C 63.109375 57.164062 63.265625 57.21875 63.40625 57.304688 C 63.546875 57.386719 63.667969 57.496094 63.765625 57.625 C 63.867188 57.757812 63.9375 57.90625 63.976562 58.066406 L 65.011719 62.121094 C 65.054688 62.28125 65.0625 62.441406 65.039062 62.601562 C 65.015625 62.765625 64.960938 62.917969 64.875 63.058594 C 64.789062 63.199219 64.683594 63.320312 64.550781 63.417969 C 64.417969 63.515625 64.273438 63.585938 64.113281 63.625 Z M 64.113281 63.625 " fill-opacity="1" fill-rule="nonzero"/><g clip-path="url(#4656f93589)"><path fill="#f4f4f4" d="M 107.898438 85.90625 C 94.800781 85.90625 84.925781 91.066406 84.925781 97.910156 C 84.925781 104.417969 95.464844 109.917969 107.898438 109.917969 C 120.332031 109.917969 130.878906 104.417969 130.878906 97.910156 C 130.878906 91.40625 120.355469 85.90625 107.898438 85.90625 Z M 107.898438 85.90625 " fill-opacity="1" fill-rule="nonzero"/></g><path fill="#f4f4f4" d="M 129.148438 123.472656 L 116.523438 123.472656 C 116.277344 123.472656 116.050781 123.40625 115.84375 123.269531 C 115.636719 123.136719 115.480469 122.953125 115.382812 122.726562 L 103.601562 95.710938 L 91.75 104.757812 L 90.246094 102.785156 L 103.351562 92.777344 C 103.503906 92.660156 103.671875 92.585938 103.859375 92.546875 C 104.046875 92.507812 104.234375 92.511719 104.417969 92.5625 C 104.601562 92.609375 104.769531 92.695312 104.914062 92.820312 C 105.058594 92.941406 105.167969 93.09375 105.246094 93.265625 L 117.34375 120.992188 L 129.15625 120.992188 Z M 129.148438 123.472656 " fill-opacity="1" fill-rule="nonzero"/><path fill="#f4f4f4" d="M 94.136719 132.910156 L 86.269531 132.910156 C 85.992188 132.910156 85.742188 132.824219 85.519531 132.65625 C 85.300781 132.484375 85.152344 132.265625 85.078125 132 L 75.980469 98.847656 L 78.375 98.191406 L 87.21875 130.4375 L 94.136719 130.4375 Z M 94.136719 132.910156 " fill-opacity="1" fill-rule="nonzero"/></svg>