<svg xmlns="http://www.w3.org/2000/svg" xmlns:xlink="http://www.w3.org/1999/xlink" width="370" zoomAndPan="magnify" viewBox="0 0 277.5 176.249993" height="235" preserveAspectRatio="xMidYMid meet" version="1.0"><defs><g/><clipPath id="587b66f5f9"><path d="M 34.34375 41.421875 L 252.898438 41.421875 L 252.898438 132.84375 L 34.34375 132.84375 Z M 34.34375 41.421875 " clip-rule="nonzero"/></clipPath><clipPath id="8be9f913d6"><path d="M 0.34375 0.421875 L 218.898438 0.421875 L 218.898438 91.84375 L 0.34375 91.84375 Z M 0.34375 0.421875 " clip-rule="nonzero"/></clipPath><clipPath id="bd0ba97b29"><rect x="0" width="219" y="0" height="92"/></clipPath><clipPath id="86cdf0915f"><rect x="0" width="155" y="0" height="68"/></clipPath><clipPath id="000a061654"><path d="M 101.265625 84.796875 L 136.75 84.796875 L 136.75 120.28125 L 101.265625 120.28125 Z M 101.265625 84.796875 " clip-rule="nonzero"/></clipPath><clipPath id="5aceb5a162"><path d="M 119.007812 84.796875 C 109.210938 84.796875 101.265625 92.738281 101.265625 102.539062 C 101.265625 112.335938 109.210938 120.28125 119.007812 120.28125 C 128.808594 120.28125 136.75 112.335938 136.75 102.539062 C 136.75 92.738281 128.808594 84.796875 119.007812 84.796875 Z M 119.007812 84.796875 " clip-rule="nonzero"/></clipPath><clipPath id="bc8bc193d6"><path d="M 0.265625 0.796875 L 35.75 0.796875 L 35.75 36.28125 L 0.265625 36.28125 Z M 0.265625 0.796875 " clip-rule="nonzero"/></clipPath><clipPath id="69b0b00211"><path d="M 18.007812 0.796875 C 8.210938 0.796875 0.265625 8.738281 0.265625 18.539062 C 0.265625 28.335938 8.210938 36.28125 18.007812 36.28125 C 27.808594 36.28125 35.75 28.335938 35.75 18.539062 C 35.75 8.738281 27.808594 0.796875 18.007812 0.796875 Z M 18.007812 0.796875 " clip-rule="nonzero"/></clipPath><clipPath id="d97c31ee19"><rect x="0" width="36" y="0" height="37"/></clipPath><clipPath id="8e936d7ab3"><path d="M 48.347656 84.796875 L 83.832031 84.796875 L 83.832031 120.28125 L 48.347656 120.28125 Z M 48.347656 84.796875 " clip-rule="nonzero"/></clipPath><clipPath id="1e056d7dbf"><path d="M 66.089844 84.796875 C 56.289062 84.796875 48.347656 92.738281 48.347656 102.539062 C 48.347656 112.335938 56.289062 120.28125 66.089844 120.28125 C 75.886719 120.28125 83.832031 112.335938 83.832031 102.539062 C 83.832031 92.738281 75.886719 84.796875 66.089844 84.796875 Z M 66.089844 84.796875 " clip-rule="nonzero"/></clipPath><clipPath id="313bf4f77e"><path d="M 0.347656 0.796875 L 35.832031 0.796875 L 35.832031 36.28125 L 0.347656 36.28125 Z M 0.347656 0.796875 " clip-rule="nonzero"/></clipPath><clipPath id="05b5cd1df4"><path d="M 18.089844 0.796875 C 8.289062 0.796875 0.347656 8.738281 0.347656 18.539062 C 0.347656 28.335938 8.289062 36.28125 18.089844 36.28125 C 27.886719 36.28125 35.832031 28.335938 35.832031 18.539062 C 35.832031 8.738281 27.886719 0.796875 18.089844 0.796875 Z M 18.089844 0.796875 " clip-rule="nonzero"/></clipPath><clipPath id="2c810043a3"><rect x="0" width="36" y="0" height="37"/></clipPath><clipPath id="a8ac13a75c"><path d="M 106.644531 97.253906 L 124.867188 97.253906 L 124.867188 115.476562 L 106.644531 115.476562 Z M 106.644531 97.253906 " clip-rule="nonzero"/></clipPath><clipPath id="76d1ceb461"><path d="M 115.757812 97.253906 C 110.722656 97.253906 106.644531 101.332031 106.644531 106.363281 C 106.644531 111.398438 110.722656 115.476562 115.757812 115.476562 C 120.789062 115.476562 124.867188 111.398438 124.867188 106.363281 C 124.867188 101.332031 120.789062 97.253906 115.757812 97.253906 Z M 115.757812 97.253906 " clip-rule="nonzero"/></clipPath><clipPath id="df5639a8d1"><path d="M 0.644531 0.253906 L 18.867188 0.253906 L 18.867188 18.476562 L 0.644531 18.476562 Z M 0.644531 0.253906 " clip-rule="nonzero"/></clipPath><clipPath id="41f4b41967"><path d="M 9.757812 0.253906 C 4.722656 0.253906 0.644531 4.332031 0.644531 9.363281 C 0.644531 14.398438 4.722656 18.476562 9.757812 18.476562 C 14.789062 18.476562 18.867188 14.398438 18.867188 9.363281 C 18.867188 4.332031 14.789062 0.253906 9.757812 0.253906 Z M 9.757812 0.253906 " clip-rule="nonzero"/></clipPath><clipPath id="b7bfff4ebc"><rect x="0" width="19" y="0" height="19"/></clipPath><clipPath id="e57909b42a"><path d="M 53.5 97.253906 L 71.722656 97.253906 L 71.722656 115.476562 L 53.5 115.476562 Z M 53.5 97.253906 " clip-rule="nonzero"/></clipPath><clipPath id="334b824623"><path d="M 62.609375 97.253906 C 57.578125 97.253906 53.5 101.332031 53.5 106.363281 C 53.5 111.398438 57.578125 115.476562 62.609375 115.476562 C 67.640625 115.476562 71.722656 111.398438 71.722656 106.363281 C 71.722656 101.332031 67.640625 97.253906 62.609375 97.253906 Z M 62.609375 97.253906 " clip-rule="nonzero"/></clipPath><clipPath id="1b2073f2c2"><path d="M 0.5 0.253906 L 18.722656 0.253906 L 18.722656 18.476562 L 0.5 18.476562 Z M 0.5 0.253906 " clip-rule="nonzero"/></clipPath><clipPath id="e6d4024ff9"><path d="M 9.609375 0.253906 C 4.578125 0.253906 0.5 4.332031 0.5 9.363281 C 0.5 14.398438 4.578125 18.476562 9.609375 18.476562 C 14.640625 18.476562 18.722656 14.398438 18.722656 9.363281 C 18.722656 4.332031 14.640625 0.253906 9.609375 0.253906 Z M 9.609375 0.253906 " clip-rule="nonzero"/></clipPath><clipPath id="c3aba09fc0"><rect x="0" width="19" y="0" height="19"/></clipPath></defs><g clip-path="url(#587b66f5f9)"><g transform="matrix(1, 0, 0, 1, 34, 41)"><g clip-path="url(#bd0ba97b29)"><g clip-path="url(#8be9f913d6)"><path fill="#0e1b22" d="M 0.34375 0.421875 L 218.902344 0.421875 L 218.902344 91.84375 L 0.34375 91.84375 Z M 0.34375 0.421875 " fill-opacity="1" fill-rule="nonzero"/></g></g></g></g><g transform="matrix(1, 0, 0, 1, 41, 53)"><g clip-path="url(#86cdf0915f)"><g fill="#ffffff" fill-opacity="1"><g transform="translate(116.033511, 67.270667)"><g><path d="M -37.125 -26.59375 C -38.820312 -26.59375 -40.453125 -25.988281 -42.015625 -24.78125 C -43.578125 -23.582031 -45.191406 -22.039062 -46.859375 -20.15625 C -48.523438 -18.28125 -50.332031 -16.257812 -52.28125 -14.09375 C -54.226562 -11.925781 -56.460938 -9.90625 -58.984375 -8.03125 C -61.503906 -6.15625 -64.429688 -4.613281 -67.765625 -3.40625 C -71.097656 -2.195312 -74.925781 -1.59375 -79.25 -1.59375 C -85.207031 -1.59375 -90.1875 -2.757812 -94.1875 -5.09375 C -98.195312 -7.4375 -101.226562 -10.46875 -103.28125 -14.1875 C -105.34375 -17.914062 -106.375 -21.835938 -106.375 -25.953125 L -106.375 -58.609375 L -74.46875 -58.609375 L -74.46875 -50.109375 C -74.46875 -48.679688 -74.394531 -47.1875 -74.25 -45.625 C -74.101562 -44.070312 -73.640625 -42.765625 -72.859375 -41.703125 C -72.085938 -40.640625 -70.707031 -40.109375 -68.71875 -40.109375 C -67.019531 -40.109375 -65.546875 -40.671875 -64.296875 -41.796875 C -63.054688 -42.929688 -61.851562 -44.40625 -60.6875 -46.21875 C -59.519531 -48.03125 -58.191406 -49.945312 -56.703125 -51.96875 C -55.210938 -53.988281 -53.398438 -55.898438 -51.265625 -57.703125 C -49.140625 -59.515625 -46.476562 -60.988281 -43.28125 -62.125 C -40.09375 -63.257812 -36.160156 -63.828125 -31.484375 -63.828125 C -25.390625 -63.828125 -19.960938 -62.65625 -15.203125 -60.3125 C -10.453125 -57.96875 -6.726562 -54.632812 -4.03125 -50.3125 C -1.34375 -45.988281 0 -40.847656 0 -34.890625 L 0 -3.078125 L -31.90625 -3.078125 L -31.90625 -15.3125 C -31.90625 -19.070312 -32.273438 -21.890625 -33.015625 -23.765625 C -33.765625 -25.648438 -35.132812 -26.59375 -37.125 -26.59375 Z M -37.125 -26.59375 "/></g></g></g></g></g><g clip-path="url(#000a061654)"><g clip-path="url(#5aceb5a162)"><g transform="matrix(1, 0, 0, 1, 101, 84)"><g clip-path="url(#d97c31ee19)"><g clip-path="url(#bc8bc193d6)"><g clip-path="url(#69b0b00211)"><path fill="#000000" d="M 0.265625 0.796875 L 35.75 0.796875 L 35.75 36.28125 L 0.265625 36.28125 Z M 0.265625 0.796875 " fill-opacity="1" fill-rule="nonzero"/></g></g></g></g></g></g><g clip-path="url(#8e936d7ab3)"><g clip-path="url(#1e056d7dbf)"><g transform="matrix(1, 0, 0, 1, 48, 84)"><g clip-path="url(#2c810043a3)"><g clip-path="url(#313bf4f77e)"><g clip-path="url(#05b5cd1df4)"><path fill="#000000" d="M 0.347656 0.796875 L 35.832031 0.796875 L 35.832031 36.28125 L 0.347656 36.28125 Z M 0.347656 0.796875 " fill-opacity="1" fill-rule="nonzero"/></g></g></g></g></g></g><g clip-path="url(#a8ac13a75c)"><g clip-path="url(#76d1ceb461)"><g transform="matrix(1, 0, 0, 1, 106, 97)"><g clip-path="url(#b7bfff4ebc)"><g clip-path="url(#df5639a8d1)"><g clip-path="url(#41f4b41967)"><path fill="#f4f4f4" d="M 0.644531 0.253906 L 18.867188 0.253906 L 18.867188 18.476562 L 0.644531 18.476562 Z M 0.644531 0.253906 " fill-opacity="1" fill-rule="nonzero"/></g></g></g></g></g></g><g fill="#e1e1e1" fill-opacity="1"><g transform="translate(164.321825, 84.310721)"><g><path d="M 15.9375 -23.515625 L 21.03125 -23.515625 L 13.03125 0 L 8.375 0 L 0.4375 -23.515625 L 5.71875 -23.515625 L 10.75 -5.703125 L 10.8125 -5.703125 Z M 15.9375 -23.515625 "/></g></g></g><g fill="#e1e1e1" fill-opacity="1"><g transform="translate(181.231526, 84.310721)"><g><path d="M 8.53125 -8.90625 L 14.53125 -8.90625 L 11.59375 -18.21875 L 11.53125 -18.21875 Z M 5.578125 0 L 0.40625 0 L 8.78125 -23.515625 L 14.46875 -23.515625 L 22.75 0 L 17.40625 0 L 15.90625 -4.84375 L 7.21875 -4.84375 Z M 5.578125 0 "/></g></g></g><g fill="#e1e1e1" fill-opacity="1"><g transform="translate(202.572155, 84.310721)"><g><path d="M 12.96875 -13.171875 C 14.257812 -13.171875 15.21875 -13.414062 15.84375 -13.90625 C 16.46875 -14.394531 16.78125 -15.222656 16.78125 -16.390625 C 16.78125 -17.347656 16.488281 -18.097656 15.90625 -18.640625 C 15.320312 -19.191406 14.46875 -19.46875 13.34375 -19.46875 L 7.21875 -19.46875 L 7.21875 -13.171875 Z M 2.40625 -23.515625 L 14.28125 -23.515625 C 16.707031 -23.515625 18.546875 -22.863281 19.796875 -21.5625 C 21.054688 -20.269531 21.6875 -18.707031 21.6875 -16.875 C 21.6875 -14.144531 20.476562 -12.28125 18.0625 -11.28125 C 19.1875 -10.851562 19.960938 -10.234375 20.390625 -9.421875 C 20.816406 -8.617188 21.03125 -7.171875 21.03125 -5.078125 C 21.03125 -2.984375 21.109375 -1.75 21.265625 -1.375 C 21.421875 -1.007812 21.691406 -0.757812 22.078125 -0.625 L 22.078125 0 L 16.65625 0 C 16.300781 -1.050781 16.125 -2.578125 16.125 -4.578125 C 16.125 -6.253906 16.007812 -7.332031 15.78125 -7.8125 C 15.5625 -8.300781 15.191406 -8.65625 14.671875 -8.875 C 14.160156 -9.09375 13.363281 -9.203125 12.28125 -9.203125 L 7.21875 -9.203125 L 7.21875 0 L 2.40625 0 Z M 2.40625 -23.515625 "/></g></g></g><g clip-path="url(#e57909b42a)"><g clip-path="url(#334b824623)"><g transform="matrix(1, 0, 0, 1, 53, 97)"><g clip-path="url(#c3aba09fc0)"><g clip-path="url(#1b2073f2c2)"><g clip-path="url(#e6d4024ff9)"><path fill="#f4f4f4" d="M 0.5 0.253906 L 18.722656 0.253906 L 18.722656 18.476562 L 0.5 18.476562 Z M 0.5 0.253906 " fill-opacity="1" fill-rule="nonzero"/></g></g></g></g></g></g><g fill="#e1e1e1" fill-opacity="1"><g transform="translate(166.623788, 115.011788)"><g><path d="M 19 -16.453125 C 18.65625 -18.046875 17.921875 -19.253906 16.796875 -20.078125 C 15.671875 -20.910156 14.210938 -21.328125 12.421875 -21.328125 C 10.097656 -21.328125 8.234375 -20.484375 6.828125 -18.796875 C 5.421875 -17.117188 4.71875 -14.851562 4.71875 -12 C 4.71875 -8.695312 5.382812 -6.234375 6.71875 -4.609375 C 8.050781 -2.992188 9.984375 -2.1875 12.515625 -2.1875 C 14.171875 -2.1875 15.597656 -2.738281 16.796875 -3.84375 C 18.003906 -4.945312 18.816406 -6.550781 19.234375 -8.65625 L 22.3125 -8.65625 C 21.894531 -5.632812 20.75 -3.332031 18.875 -1.75 C 17 -0.164062 14.71875 0.625 12.03125 0.625 C 8.820312 0.625 6.253906 -0.476562 4.328125 -2.6875 C 2.398438 -4.894531 1.4375 -7.960938 1.4375 -11.890625 C 1.4375 -15.671875 2.441406 -18.65625 4.453125 -20.84375 C 6.460938 -23.039062 9.117188 -24.140625 12.421875 -24.140625 C 15.148438 -24.140625 17.359375 -23.4375 19.046875 -22.03125 C 20.742188 -20.625 21.753906 -18.765625 22.078125 -16.453125 Z M 19 -16.453125 "/></g></g></g><g fill="#e1e1e1" fill-opacity="1"><g transform="translate(188.188249, 115.011788)"><g><path d="M 12.578125 -8.75 C 12.359375 -8.53125 11.9375 -8.347656 11.3125 -8.203125 C 10.695312 -8.066406 9.535156 -7.882812 7.828125 -7.65625 C 6.566406 -7.507812 5.640625 -7.203125 5.046875 -6.734375 C 4.453125 -6.265625 4.15625 -5.644531 4.15625 -4.875 C 4.15625 -3.9375 4.40625 -3.207031 4.90625 -2.6875 C 5.40625 -2.164062 6.207031 -1.90625 7.3125 -1.90625 C 8.6875 -1.90625 9.90625 -2.296875 10.96875 -3.078125 C 12.039062 -3.859375 12.578125 -4.8125 12.578125 -5.9375 Z M 2.03125 -11.921875 C 2.09375 -13.847656 2.71875 -15.28125 3.90625 -16.21875 C 5.101562 -17.15625 6.835938 -17.625 9.109375 -17.625 C 10.921875 -17.625 12.4375 -17.210938 13.65625 -16.390625 C 14.882812 -15.578125 15.5 -14.394531 15.5 -12.84375 L 15.5 -2.96875 C 15.5 -2.300781 15.804688 -1.96875 16.421875 -1.96875 C 16.660156 -1.96875 16.972656 -2.007812 17.359375 -2.09375 L 17.359375 0 C 16.835938 0.207031 16.296875 0.3125 15.734375 0.3125 C 14.742188 0.3125 14.007812 0.101562 13.53125 -0.3125 C 13.050781 -0.726562 12.800781 -1.382812 12.78125 -2.28125 C 11.132812 -0.425781 9.070312 0.5 6.59375 0.5 C 4.96875 0.5 3.664062 0.0390625 2.6875 -0.875 C 1.707031 -1.789062 1.21875 -2.988281 1.21875 -4.46875 C 1.21875 -5.96875 1.644531 -7.179688 2.5 -8.109375 C 3.351562 -9.035156 4.59375 -9.597656 6.21875 -9.796875 L 11.3125 -10.421875 C 12.226562 -10.554688 12.6875 -11.234375 12.6875 -12.453125 C 12.6875 -13.347656 12.351562 -14.035156 11.6875 -14.515625 C 11.019531 -14.992188 10.007812 -15.234375 8.65625 -15.234375 C 7.445312 -15.234375 6.519531 -14.960938 5.875 -14.421875 C 5.226562 -13.890625 4.84375 -13.054688 4.71875 -11.921875 Z M 2.03125 -11.921875 "/></g></g></g><g fill="#e1e1e1" fill-opacity="1"><g transform="translate(204.3789, 115.011788)"><g><path d="M 5.046875 0 L 2.15625 0 L 2.15625 -17.140625 L 4.875 -17.140625 L 4.875 -14.28125 L 4.9375 -14.28125 C 6.1875 -16.507812 7.796875 -17.625 9.765625 -17.625 C 10.066406 -17.625 10.316406 -17.59375 10.515625 -17.53125 L 10.515625 -14.546875 L 9.4375 -14.546875 C 8.144531 -14.546875 7.085938 -14.109375 6.265625 -13.234375 C 5.453125 -12.359375 5.046875 -11.269531 5.046875 -9.96875 Z M 5.046875 0 "/></g></g></g><g fill="#e1e1e1" fill-opacity="1"><g transform="translate(213.244425, 115.011788)"><g><path d="M 11.828125 -12.25 C 11.785156 -13.28125 11.414062 -14.019531 10.71875 -14.46875 C 10.03125 -14.914062 9.046875 -15.140625 7.765625 -15.140625 C 6.816406 -15.140625 6.007812 -14.929688 5.34375 -14.515625 C 4.6875 -14.097656 4.359375 -13.5 4.359375 -12.71875 C 4.359375 -12.101562 4.550781 -11.644531 4.9375 -11.34375 C 5.332031 -11.050781 6.1875 -10.742188 7.5 -10.421875 L 10.34375 -9.6875 C 12.070312 -9.257812 13.304688 -8.703125 14.046875 -8.015625 C 14.796875 -7.335938 15.171875 -6.394531 15.171875 -5.1875 C 15.171875 -3.5 14.550781 -2.128906 13.3125 -1.078125 C 12.082031 -0.0234375 10.441406 0.5 8.390625 0.5 C 5.984375 0.5 4.164062 0 2.9375 -1 C 1.707031 -2 1.082031 -3.5 1.0625 -5.5 L 3.84375 -5.5 C 3.882812 -4.320312 4.273438 -3.441406 5.015625 -2.859375 C 5.753906 -2.285156 6.863281 -2 8.34375 -2 C 9.550781 -2 10.507812 -2.238281 11.21875 -2.71875 C 11.925781 -3.195312 12.28125 -3.863281 12.28125 -4.71875 C 12.28125 -5.320312 12.050781 -5.804688 11.59375 -6.171875 C 11.132812 -6.535156 10.226562 -6.875 8.875 -7.1875 L 5.53125 -8 C 4.175781 -8.34375 3.175781 -8.851562 2.53125 -9.53125 C 1.882812 -10.207031 1.5625 -11.082031 1.5625 -12.15625 C 1.5625 -13.84375 2.164062 -15.175781 3.375 -16.15625 C 4.582031 -17.132812 6.15625 -17.625 8.09375 -17.625 C 10.164062 -17.625 11.753906 -17.117188 12.859375 -16.109375 C 13.960938 -15.109375 14.546875 -13.820312 14.609375 -12.25 Z M 11.828125 -12.25 "/></g></g></g><g fill="#e1e1e1" fill-opacity="1"><g transform="translate(227.323779, 115.011788)"><g><path d="M 6.25 0 L 2.84375 0 L 2.84375 -3.46875 L 6.25 -3.46875 Z M 6.25 0 "/></g></g></g></svg>